<svg width="157" height="57" viewBox="0 0 157 57" fill="none" xmlns="http://www.w3.org/2000/svg">
<path d="M6.89 10H7.8V0.899999H7.02L1.95 8.31V0.899999H1.04V10H1.82L6.89 2.59V10ZM16.3759 0.899999H9.87594V10H10.7859V1.758H15.4659V10H16.3759V0.899999ZM27.012 0.899999L24.62 6.49L21.994 0.899999H21.058L24.191 7.504L24.009 7.933C23.593 8.908 22.995 9.272 22.02 9.168V10C23.411 10.091 24.308 9.454 24.919 8.011L27.948 0.899999H27.012ZM34.9685 3.5H33.9805L31.7835 7.062L29.5865 3.5H28.5985V10H29.4565V4.813L31.7315 8.505H31.8355L34.1105 4.813V10H34.9685V3.5ZM42.377 3.5V4.774C41.831 3.903 40.908 3.344 39.751 3.344C37.918 3.344 36.397 4.826 36.397 6.75C36.397 8.674 37.918 10.156 39.751 10.156C40.908 10.156 41.831 9.597 42.377 8.726V10H43.235V3.5H42.377ZM39.816 9.324C38.373 9.324 37.255 8.193 37.255 6.75C37.255 5.307 38.373 4.176 39.816 4.176C41.259 4.176 42.377 5.307 42.377 6.75C42.377 8.193 41.259 9.324 39.816 9.324ZM48.5356 3.344C47.3786 3.344 46.4556 3.903 45.9096 4.774V3.5H45.0516V12.6H45.9096V8.726C46.4556 9.597 47.3786 10.156 48.5356 10.156C50.3686 10.156 51.8896 8.674 51.8896 6.75C51.8896 4.826 50.3686 3.344 48.5356 3.344ZM48.4706 9.324C47.0276 9.324 45.9096 8.193 45.9096 6.75C45.9096 5.307 47.0276 4.176 48.4706 4.176C49.9136 4.176 51.0316 5.307 51.0316 6.75C51.0316 8.193 49.9136 9.324 48.4706 9.324ZM56.3453 10.156C58.2433 10.156 59.7643 8.674 59.7643 6.75C59.7643 4.826 58.2433 3.344 56.3453 3.344C54.4473 3.344 52.9263 4.826 52.9263 6.75C52.9263 8.674 54.4473 10.156 56.3453 10.156ZM56.3453 9.324C54.9023 9.324 53.7843 8.193 53.7843 6.75C53.7843 5.307 54.9023 4.176 56.3453 4.176C57.7883 4.176 58.9062 5.307 58.9062 6.75C58.9062 8.193 57.7883 9.324 56.3453 9.324ZM65.334 6.659C65.841 6.36 66.088 5.866 66.088 5.242C66.088 4.254 65.399 3.5 64.099 3.5H61.2V10H64.359C65.737 10 66.4 9.181 66.4 8.18C66.4 7.478 66.036 6.919 65.334 6.659ZM64.099 4.332C64.84 4.332 65.23 4.696 65.23 5.294C65.23 5.944 64.853 6.308 64.099 6.308H62.058V4.332H64.099ZM64.359 9.168H62.058V7.14H64.359C65.126 7.14 65.542 7.53 65.542 8.128C65.542 8.778 65.139 9.168 64.359 9.168ZM76.8 0.899999H70.3V1.758H73.095V10H74.005V1.758H76.8V0.899999ZM77.2606 10.13C77.6636 10.13 77.9756 9.818 77.9756 9.415C77.9756 9.012 77.6636 8.7 77.2606 8.7C76.8576 8.7 76.5456 9.012 76.5456 9.415C76.5456 9.818 76.8576 10.13 77.2606 10.13ZM89.1097 10H90.0717L86.5747 0.899999H85.6387L82.1417 10H83.1037L83.9487 7.764H88.2647L89.1097 10ZM84.2737 6.906L86.1067 2.031L87.9397 6.906H84.2737ZM91.9491 10.13C92.3521 10.13 92.6641 9.818 92.6641 9.415C92.6641 9.012 92.3521 8.7 91.9491 8.7C91.5461 8.7 91.2341 9.012 91.2341 9.415C91.2341 9.818 91.5461 10.13 91.9491 10.13ZM6.89 33H7.8V23.9H7.02L1.95 31.31V23.9H1.04V33H1.82L6.89 25.59V33ZM15.7259 23.9V27.891H10.7859V23.9H9.87594V33H10.7859V28.749H15.7259V33H16.6359V23.9H15.7259ZM24.5619 23.9V27.891H19.6219V23.9H18.7119V33H19.6219V28.749H24.5619V33H25.4719V23.9H24.5619ZM30.0178 23.9V24.758H34.6588L31.2268 33H32.1758L35.6078 24.758V23.9H30.0178ZM42.5714 30.322H41.4014V27.54H40.4914V30.322H36.6824L40.0624 23.9H39.0614L35.6814 30.322V31.18H40.4914V33H41.4014V31.18H42.5714V30.322ZM46.3425 27.566H44.8085L45.0035 24.758H49.0725V23.9H44.1975L43.8725 28.45H46.3425C47.5255 28.45 48.4875 29.1 48.4875 30.361C48.4875 31.622 47.5255 32.272 46.3425 32.272C45.3025 32.272 44.4445 31.778 44.1845 30.777L43.4175 31.219C43.8205 32.506 45.0295 33.156 46.3425 33.156C47.9415 33.156 49.3975 32.168 49.3975 30.361C49.3975 28.554 47.9415 27.566 46.3425 27.566ZM50.1841 33H55.9691V32.116H51.4841L54.0841 29.529C55.0071 28.606 55.7741 27.631 55.7741 26.474C55.7741 24.693 54.3831 23.744 53.0311 23.744C51.8741 23.744 50.8081 24.303 50.2231 25.46L50.9901 25.915C51.4321 25.018 52.1471 24.628 53.0311 24.628C53.9671 24.628 54.8641 25.239 54.8641 26.474C54.8641 27.319 54.2271 28.112 53.4601 28.879L50.1841 32.181V33ZM59.0941 23.9L56.6891 24.732L56.9231 25.512L58.9641 24.901V33H59.8741V23.9H59.0941ZM64.3571 27.15C64.1101 27.15 63.8631 27.176 63.6291 27.228L65.8651 23.9H64.8381L61.8611 28.333C61.5101 28.827 61.3021 29.438 61.3021 30.153C61.3021 31.934 62.5891 33.156 64.3571 33.156C66.1251 33.156 67.4121 31.934 67.4121 30.153C67.4121 28.372 66.1251 27.15 64.3571 27.15ZM64.3571 32.272C63.0701 32.272 62.2121 31.427 62.2121 30.153C62.2121 28.879 63.0701 28.034 64.3571 28.034C65.6441 28.034 66.5021 28.879 66.5021 30.153C66.5021 31.427 65.6441 32.272 64.3571 32.272ZM68.1352 33H73.9202V32.116H69.4352L72.0352 29.529C72.9582 28.606 73.7252 27.631 73.7252 26.474C73.7252 24.693 72.3342 23.744 70.9822 23.744C69.8252 23.744 68.7592 24.303 68.1742 25.46L68.9412 25.915C69.3832 25.018 70.0982 24.628 70.9822 24.628C71.9182 24.628 72.8152 25.239 72.8152 26.474C72.8152 27.319 72.1782 28.112 71.4112 28.879L68.1352 32.181V33ZM74.9653 33H80.7503V32.116H76.2653L78.8653 29.529C79.7883 28.606 80.5553 27.631 80.5553 26.474C80.5553 24.693 79.1643 23.744 77.8123 23.744C76.6553 23.744 75.5893 24.303 75.0043 25.46L75.7713 25.915C76.2133 25.018 76.9283 24.628 77.8123 24.628C78.7483 24.628 79.6453 25.239 79.6453 26.474C79.6453 27.319 79.0083 28.112 78.2413 28.879L74.9653 32.181V33ZM87.7754 26.747C87.7754 24.966 86.4884 23.744 84.7204 23.744C82.9524 23.744 81.6654 24.966 81.6654 26.747C81.6654 28.528 82.9524 29.75 84.7204 29.75C84.9674 29.75 85.2144 29.724 85.4484 29.672L83.2124 33H84.2394L87.2164 28.567C87.5674 28.073 87.7754 27.462 87.7754 26.747ZM82.5754 26.747C82.5754 25.473 83.4334 24.628 84.7204 24.628C86.0074 24.628 86.8654 25.473 86.8654 26.747C86.8654 28.021 86.0074 28.866 84.7204 28.866C83.4334 28.866 82.5754 28.021 82.5754 26.747ZM93.2649 28.307C93.9669 27.904 94.4739 27.202 94.4739 26.266C94.4739 24.537 93.0829 23.744 91.7309 23.744C90.3789 23.744 88.9879 24.537 88.9879 26.266C88.9879 27.202 89.4949 27.904 90.1969 28.307C89.2999 28.723 88.6889 29.516 88.6889 30.53C88.6889 32.246 90.0799 33.156 91.7309 33.156C93.3819 33.156 94.7729 32.246 94.7729 30.53C94.7729 29.516 94.1619 28.723 93.2649 28.307ZM91.7309 24.628C92.6669 24.628 93.5639 25.083 93.5639 26.266C93.5639 27.371 92.6669 27.904 91.7309 27.904C90.7949 27.904 89.8979 27.371 89.8979 26.266C89.8979 25.083 90.7949 24.628 91.7309 24.628ZM91.7309 32.272C90.4959 32.272 89.5989 31.7 89.5989 30.53C89.5989 29.36 90.4959 28.788 91.7309 28.788C92.9659 28.788 93.8629 29.36 93.8629 30.53C93.8629 31.7 92.9659 32.272 91.7309 32.272ZM99.386 33.156C101.609 33.156 102.831 31.258 102.831 28.45C102.831 25.642 101.609 23.744 99.386 23.744C97.163 23.744 95.941 25.642 95.941 28.45C95.941 31.258 97.163 33.156 99.386 33.156ZM99.386 32.272C97.787 32.272 96.851 30.881 96.851 28.45C96.851 26.019 97.787 24.628 99.386 24.628C100.985 24.628 101.921 26.019 101.921 28.45C101.921 30.881 100.985 32.272 99.386 32.272ZM109.979 26.747C109.979 24.966 108.692 23.744 106.924 23.744C105.156 23.744 103.869 24.966 103.869 26.747C103.869 28.528 105.156 29.75 106.924 29.75C107.171 29.75 107.418 29.724 107.652 29.672L105.416 33H106.443L109.42 28.567C109.771 28.073 109.979 27.462 109.979 26.747ZM104.779 26.747C104.779 25.473 105.637 24.628 106.924 24.628C108.211 24.628 109.069 25.473 109.069 26.747C109.069 28.021 108.211 28.866 106.924 28.866C105.637 28.866 104.779 28.021 104.779 26.747ZM5.226 56.156C7.878 56.156 9.932 54.05 9.932 51.45C9.932 48.85 7.878 46.744 5.226 46.744C2.574 46.744 0.52 48.85 0.52 51.45C0.52 54.05 2.574 56.156 5.226 56.156ZM5.226 55.272C3.068 55.272 1.43 53.569 1.43 51.45C1.43 49.331 3.068 47.628 5.226 47.628C7.384 47.628 9.022 49.331 9.022 51.45C9.022 53.569 7.384 55.272 5.226 55.272ZM16.5582 46.9H11.4882V56H12.3982V47.758H16.5582V46.9ZM21.1113 46.9H17.8613V56H18.7713V52.62H21.1113C22.7493 52.62 23.9713 51.385 23.9713 49.76C23.9713 48.122 22.7493 46.9 21.1113 46.9ZM21.1113 51.762H18.7713V47.758H21.1113C22.2423 47.758 23.0613 48.59 23.0613 49.76C23.0613 50.917 22.2423 51.762 21.1113 51.762ZM31.3793 46.9V50.891H26.4393V46.9H25.5293V56H26.4393V51.749H31.3793V56H32.2893V46.9H31.3793ZM40.2152 56H41.1252V46.9H40.3452L35.2752 54.31V46.9H34.3652V56H35.1452L40.2152 48.59V56ZM49.7011 46.9H43.2011V56H44.1111V47.758H48.7911V56H49.7011V46.9ZM57.8542 50.683L59.9732 47.758V46.9H54.6432V47.758H58.9202L56.6582 50.852L57.0482 51.45H57.2952L57.3082 51.437V51.45C58.4912 51.45 59.4532 52.1 59.4532 53.361C59.4532 54.622 58.4912 55.272 57.3082 55.272C56.2682 55.272 55.4362 54.83 55.1372 53.907L54.3832 54.349C54.8252 55.545 55.9952 56.156 57.3082 56.156C58.9072 56.156 60.3632 55.168 60.3632 53.361C60.3632 51.762 59.2192 50.865 57.8542 50.683ZM63.3598 46.9L60.9548 47.732L61.1888 48.512L63.2298 47.901V56H64.1398V46.9H63.3598ZM68.6227 50.566H67.0887L67.2837 47.758H71.3527V46.9H66.4777L66.1527 51.45H68.6227C69.8057 51.45 70.7677 52.1 70.7677 53.361C70.7677 54.622 69.8057 55.272 68.6227 55.272C67.5827 55.272 66.7247 54.778 66.4647 53.777L65.6977 54.219C66.1007 55.506 67.3097 56.156 68.6227 56.156C70.2217 56.156 71.6777 55.168 71.6777 53.361C71.6777 51.554 70.2217 50.566 68.6227 50.566ZM72.3313 46.9V47.758H76.9723L73.5403 56H74.4893L77.9213 47.758V46.9H72.3313ZM84.8849 53.322H83.7149V50.54H82.8049V53.322H78.9959L82.3759 46.9H81.3749L77.9949 53.322V54.18H82.8049V56H83.7149V54.18H84.8849V53.322ZM88.6559 50.566H87.1219L87.3169 47.758H91.3859V46.9H86.5109L86.1859 51.45H88.6559C89.8389 51.45 90.8009 52.1 90.8009 53.361C90.8009 54.622 89.8389 55.272 88.6559 55.272C87.6159 55.272 86.7579 54.778 86.4979 53.777L85.7309 54.219C86.1339 55.506 87.3429 56.156 88.6559 56.156C90.2549 56.156 91.7109 55.168 91.7109 53.361C91.7109 51.554 90.2549 50.566 88.6559 50.566ZM92.4975 56H98.2825V55.116H93.7975L96.3975 52.529C97.3205 51.606 98.0875 50.631 98.0875 49.474C98.0875 47.693 96.6965 46.744 95.3445 46.744C94.1875 46.744 93.1215 47.303 92.5365 48.46L93.3035 48.915C93.7455 48.018 94.4605 47.628 95.3445 47.628C96.2805 47.628 97.1775 48.239 97.1775 49.474C97.1775 50.319 96.5405 51.112 95.7735 51.879L92.4975 55.181V56ZM102.776 56.156C104.999 56.156 106.221 54.258 106.221 51.45C106.221 48.642 104.999 46.744 102.776 46.744C100.553 46.744 99.3307 48.642 99.3307 51.45C99.3307 54.258 100.553 56.156 102.776 56.156ZM102.776 55.272C101.177 55.272 100.241 53.881 100.241 51.45C100.241 49.019 101.177 47.628 102.776 47.628C104.375 47.628 105.311 49.019 105.311 51.45C105.311 53.881 104.375 55.272 102.776 55.272ZM110.964 56.156C113.187 56.156 114.409 54.258 114.409 51.45C114.409 48.642 113.187 46.744 110.964 46.744C108.741 46.744 107.519 48.642 107.519 51.45C107.519 54.258 108.741 56.156 110.964 56.156ZM110.964 55.272C109.365 55.272 108.429 53.881 108.429 51.45C108.429 49.019 109.365 47.628 110.964 47.628C112.563 47.628 113.499 49.019 113.499 51.45C113.499 53.881 112.563 55.272 110.964 55.272ZM119.153 56.156C121.376 56.156 122.598 54.258 122.598 51.45C122.598 48.642 121.376 46.744 119.153 46.744C116.93 46.744 115.708 48.642 115.708 51.45C115.708 54.258 116.93 56.156 119.153 56.156ZM119.153 55.272C117.554 55.272 116.618 53.881 116.618 51.45C116.618 49.019 117.554 47.628 119.153 47.628C120.752 47.628 121.688 49.019 121.688 51.45C121.688 53.881 120.752 55.272 119.153 55.272ZM127.341 56.156C129.564 56.156 130.786 54.258 130.786 51.45C130.786 48.642 129.564 46.744 127.341 46.744C125.118 46.744 123.896 48.642 123.896 51.45C123.896 54.258 125.118 56.156 127.341 56.156ZM127.341 55.272C125.742 55.272 124.806 53.881 124.806 51.45C124.806 49.019 125.742 47.628 127.341 47.628C128.94 47.628 129.876 49.019 129.876 51.45C129.876 53.881 128.94 55.272 127.341 55.272ZM133.781 46.9L131.376 47.732L131.61 48.512L133.651 47.901V56H134.561V46.9H133.781ZM139.46 50.683L141.579 47.758V46.9H136.249V47.758H140.526L138.264 50.852L138.654 51.45H138.901L138.914 51.437V51.45C140.097 51.45 141.059 52.1 141.059 53.361C141.059 54.622 140.097 55.272 138.914 55.272C137.874 55.272 137.042 54.83 136.743 53.907L135.989 54.349C136.431 55.545 137.601 56.156 138.914 56.156C140.513 56.156 141.969 55.168 141.969 53.361C141.969 51.762 140.825 50.865 139.46 50.683ZM145.874 50.566H144.34L144.535 47.758H148.604V46.9H143.729L143.404 51.45H145.874C147.057 51.45 148.019 52.1 148.019 53.361C148.019 54.622 147.057 55.272 145.874 55.272C144.834 55.272 143.976 54.778 143.716 53.777L142.949 54.219C143.352 55.506 144.561 56.156 145.874 56.156C147.473 56.156 148.929 55.168 148.929 53.361C148.929 51.554 147.473 50.566 145.874 50.566ZM154.545 51.307C155.247 50.904 155.754 50.202 155.754 49.266C155.754 47.537 154.363 46.744 153.011 46.744C151.659 46.744 150.268 47.537 150.268 49.266C150.268 50.202 150.775 50.904 151.477 51.307C150.58 51.723 149.969 52.516 149.969 53.53C149.969 55.246 151.36 56.156 153.011 56.156C154.662 56.156 156.053 55.246 156.053 53.53C156.053 52.516 155.442 51.723 154.545 51.307ZM153.011 47.628C153.947 47.628 154.844 48.083 154.844 49.266C154.844 50.371 153.947 50.904 153.011 50.904C152.075 50.904 151.178 50.371 151.178 49.266C151.178 48.083 152.075 47.628 153.011 47.628ZM153.011 55.272C151.776 55.272 150.879 54.7 150.879 53.53C150.879 52.36 151.776 51.788 153.011 51.788C154.246 51.788 155.143 52.36 155.143 53.53C155.143 54.7 154.246 55.272 153.011 55.272Z" fill="#8E8E8E"/>
</svg>
