<svg width="35" height="35" viewBox="0 0 35 35" fill="none" xmlns="http://www.w3.org/2000/svg">
<g clip-path="url(#clip0_1_1102)">
<path d="M34.8884 17.4371C34.8884 27.0673 27.0814 34.8741 17.4512 34.8741C7.82101 34.8741 0.0141602 27.0673 0.0141602 17.4371C0.0141602 7.80683 7.82101 0 17.4512 0C27.0814 0 34.8884 7.80683 34.8884 17.4371Z" fill="#22253B"/>
<path d="M19.2199 12.9132H21.2458V9.97339H18.8643V9.98399C15.9785 10.0844 15.387 11.6778 15.3349 13.3514H15.3289V14.8194H13.3639V17.6985H15.3289V25.4158H18.2904V17.6985H20.7164L21.1849 14.8194H18.2914V13.9325C18.2914 13.3669 18.6745 12.9132 19.2199 12.9132Z" fill="white"/>
</g>
<defs>
<clipPath id="clip0_1_1102">
<rect width="35" height="35" fill="white"/>
</clipPath>
</defs>
</svg>
