<svg width="53" height="20" viewBox="0 0 53 20" fill="none" xmlns="http://www.w3.org/2000/svg">
<path fill-rule="evenodd" clip-rule="evenodd" d="M19.3748 7.82289V16.9955C19.4681 17.8167 20.2482 19.459 22.6221 19.459H26.0374V17.6114H22.6221C22.1369 17.6114 21.1664 17.3426 21.1664 16.2677V7.82289H25.1973V5.8073H21.1664V2.43848H19.3748V5.8073H16.911V7.82289H19.3748Z" fill="black"/>
<path fill-rule="evenodd" clip-rule="evenodd" d="M46.3378 7.82289V16.9955C46.4311 17.8167 47.2112 19.459 49.5851 19.459H53.0004V17.6114H49.5851C49.0999 17.6114 48.1294 17.3426 48.1294 16.2677V7.82289H52.1603V5.8073H48.1294V2.43848H46.3378V5.8073H43.874V7.82289H46.3378Z" fill="black"/>
<path fill-rule="evenodd" clip-rule="evenodd" d="M0 0H2.28312L7.5579 9.21119L12.9364 0H15.2733L8.58137 11.4943H6.29825L0 0ZM8.5826 11.4943H6.30332V19.4591H8.5826V11.4943Z" fill="#38BFF2"/>
<path fill-rule="evenodd" clip-rule="evenodd" d="M26.9629 0H29.246L34.5208 9.21119L39.8993 0H42.2362L35.5443 11.4943H33.2611L26.9629 0ZM35.5455 11.4943H33.2662V19.4591H35.5455V11.4943Z" fill="#F15525"/>
</svg>
