<svg width="35" height="35" viewBox="0 0 35 35" fill="none" xmlns="http://www.w3.org/2000/svg">
<g clip-path="url(#clip0_1_1091)">
<path d="M34.8884 17.4371C34.8884 27.0673 27.0814 34.8741 17.4512 34.8741C7.82101 34.8741 0.0141602 27.0673 0.0141602 17.4371C0.0141602 7.80683 7.82101 0 17.4512 0C27.0814 0 34.8884 7.80683 34.8884 17.4371Z" fill="#22253B"/>
<path d="M21.4011 8.68628H13.2124C10.5473 8.68628 8.37915 10.8544 8.37915 13.5195V21.7084C8.37915 24.3734 10.5473 26.5416 13.2124 26.5416H21.4013C24.0661 26.5416 26.2343 24.3734 26.2343 21.7084V13.5195C26.2343 10.8544 24.0661 8.68628 21.4011 8.68628ZM17.3068 22.4961C14.6147 22.4961 12.4246 20.306 12.4246 17.6139C12.4246 14.9218 14.6147 12.7317 17.3068 12.7317C19.9988 12.7317 22.189 14.9218 22.189 17.6139C22.189 20.306 19.9988 22.4961 17.3068 22.4961ZM22.3057 13.8831C21.5101 13.8831 20.863 13.236 20.863 12.4405C20.863 11.6449 21.5101 10.9977 22.3057 10.9977C23.1012 10.9977 23.7483 11.6449 23.7483 12.4405C23.7483 13.236 23.1012 13.8831 22.3057 13.8831Z" fill="white"/>
<path d="M17.307 13.7786C15.1922 13.7786 13.4716 15.4991 13.4716 17.614C13.4716 19.7287 15.1922 21.4494 17.307 21.4494C19.4218 21.4494 21.1422 19.7287 21.1422 17.614C21.1422 15.4991 19.4218 13.7786 17.307 13.7786Z" fill="white"/>
<path d="M22.3059 12.0444C22.0876 12.0444 21.91 12.2221 21.91 12.4403C21.91 12.6585 22.0876 12.8362 22.3059 12.8362C22.5241 12.8362 22.702 12.6587 22.702 12.4403C22.702 12.2219 22.5241 12.0444 22.3059 12.0444Z" fill="white"/>
</g>
<defs>
<clipPath id="clip0_1_1091">
<rect width="35" height="35" fill="white"/>
</clipPath>
</defs>
</svg>
