<svg width="52" height="60" viewBox="0 0 52 60" fill="none" xmlns="http://www.w3.org/2000/svg">
<path d="M35.2664 4.02055V55.9793C35.2664 57.6874 33.8817 59.0721 32.1735 59.0721H4.24778C2.53965 59.0721 1.15497 57.6874 1.15497 55.9793V4.02055C1.15497 2.31242 2.53965 0.927734 4.24778 0.927734H32.1735C33.8817 0.927852 35.2664 2.31254 35.2664 4.02055Z" fill="white"/>
<path d="M26.8145 0.927856V3.39711C26.8145 4.76364 25.7068 5.8713 24.3404 5.8713H12.0806C10.714 5.8713 9.60638 4.76352 9.60638 3.39711V0.927856H26.8145Z" fill="#38BFF2"/>
<path d="M50.8452 20.7649V40.4721C50.8452 41.8387 49.7374 42.9463 48.371 42.9463H18.2101V18.2906H48.3709C49.7374 18.2906 50.8452 19.3984 50.8452 20.7649Z" fill="#38BFF2"/>
<path d="M18.2101 23.3474H50.8452V29.4781H18.2101V23.3474Z" fill="#D7E9FF"/>
<path d="M10.0558 54.7422C9.7142 54.7422 9.43729 55.0189 9.43729 55.3607C9.43729 55.7027 9.7142 55.9792 10.0558 55.9792H26.3651C26.7067 55.9792 26.9837 55.7025 26.9837 55.3607C26.9837 55.0187 26.7067 54.7422 26.3651 54.7422H10.0558Z" fill="#1A2E35"/>
<path d="M22.6969 4.01816H23.8014C24.143 4.01816 24.42 3.74148 24.42 3.39964C24.42 3.05781 24.143 2.78113 23.8014 2.78113H22.6969C22.3553 2.78113 22.0784 3.05781 22.0784 3.39964C22.0784 3.74148 22.3553 4.01816 22.6969 4.01816Z" fill="#1A2E35"/>
<path d="M12.6195 4.01816H19.7982C20.1398 4.01816 20.4167 3.74148 20.4167 3.39964C20.4167 3.05781 20.1398 2.78113 19.7982 2.78113H12.6195C12.2779 2.78113 12.001 3.05781 12.001 3.39964C12.001 3.74148 12.2779 4.01816 12.6195 4.01816Z" fill="#1A2E35"/>
<path d="M48.3707 17.6723H35.8849V4.02053C35.8849 1.97397 34.2201 0.309204 32.1735 0.309204C26.0916 0.309204 10.3337 0.309204 4.24789 0.309204C2.20133 0.309204 0.53656 1.97397 0.53656 4.02053V55.9792C0.53656 58.0258 2.20133 59.6906 4.24789 59.6906H32.1734C34.22 59.6906 35.8848 58.0258 35.8848 55.9792V43.5647H48.3706C50.0759 43.5647 51.4634 42.1772 51.4634 40.4719C51.4634 33.2803 51.4634 27.8474 51.4634 20.7651C51.4635 19.0598 50.0759 17.6723 48.3707 17.6723ZM50.2264 20.7651V22.7289H18.8286V18.9094H48.3707C49.394 18.9094 50.2264 19.7418 50.2264 20.7651ZM50.2264 28.8595H18.8286V23.966H50.2264V28.8595ZM26.196 1.54635V3.39721C26.196 4.42049 25.3637 5.25288 24.3404 5.25288H12.0807C11.0574 5.25288 10.225 4.42049 10.225 3.39721V1.54635H26.196ZM34.6477 55.9794C34.6477 57.3439 33.5377 58.4535 32.1735 58.4535H4.24777C2.88347 58.4535 1.77359 57.3439 1.77359 55.9794V4.02053C1.77359 2.656 2.88359 1.54635 4.24777 1.54635H8.98777V3.39721C8.98777 5.10252 10.3753 6.49002 12.0806 6.49002H24.3403C26.0456 6.49002 27.4331 5.10252 27.4331 3.39721V1.54635H32.1734C33.5377 1.54635 34.6476 2.656 34.6476 4.02053V17.6723H18.8285V14.8822C18.8285 14.5402 18.5516 14.2637 18.21 14.2637C17.8684 14.2637 17.5914 14.5403 17.5914 14.8822V46.3482C17.5914 46.6901 17.8684 46.9667 18.21 46.9667C18.5516 46.9667 18.8285 46.69 18.8285 46.3482V43.5646H34.6476V55.9794H34.6477ZM48.3707 42.3276H18.8286V34.7671H39.2787C39.6203 34.7671 39.8973 34.4905 39.8973 34.1486C39.8973 33.8067 39.6203 33.5301 39.2787 33.5301H18.8286V30.0966H50.2264V40.4719C50.2264 41.4952 49.394 42.3276 48.3707 42.3276Z" fill="#1A2E35"/>
<path d="M39.2788 37.657H37.5068C37.1652 37.657 36.8882 37.9337 36.8882 38.2755C36.8882 38.6175 37.1652 38.894 37.5068 38.894H39.2788C39.6204 38.894 39.8973 38.6173 39.8973 38.2755C39.8973 37.9337 39.6204 37.657 39.2788 37.657Z" fill="#1A2E35"/>
<path d="M34.2134 37.657H32.4415C32.0999 37.657 31.8229 37.9337 31.8229 38.2755C31.8229 38.6175 32.0999 38.894 32.4415 38.894H34.2134C34.555 38.894 34.832 38.6173 34.832 38.2755C34.832 37.9337 34.555 37.657 34.2134 37.657Z" fill="#1A2E35"/>
<path d="M29.148 37.657H27.376C27.0344 37.657 26.7575 37.9337 26.7575 38.2755C26.7575 38.6175 27.0344 38.894 27.376 38.894H29.148C29.4896 38.894 29.7665 38.6173 29.7665 38.2755C29.7666 37.9337 29.4896 37.657 29.148 37.657Z" fill="#1A2E35"/>
<path d="M24.0827 37.657H22.3107C21.9691 37.657 21.6922 37.9337 21.6922 38.2755C21.6922 38.6175 21.9691 38.894 22.3107 38.894H24.0827C24.4243 38.894 24.7012 38.6173 24.7012 38.2755C24.7013 37.9337 24.4243 37.657 24.0827 37.657Z" fill="#1A2E35"/>
</svg>
