<svg width="58" height="58" viewBox="0 0 58 58" fill="none" xmlns="http://www.w3.org/2000/svg">
  <g clip-path="url(#clip0_1_811)">
    <path d="M57.103 11.7017V54.4721C57.103 55.9311 55.9251 57.1031 54.4662 57.1031H3.53382C2.07487 57.1031 0.896973 55.9311 0.896973 54.4721V11.7017H57.103Z" fill="white" />
    <path d="M57.103 3.53382V11.7016H0.896973V3.53382C0.896973 2.07487 2.07487 0.896973 3.53382 0.896973H54.4662C55.9251 0.896973 57.103 2.07487 57.103 3.53382Z" fill="#38BFF2" />
    <path d="M8.11756 6.29652C8.11756 7.05765 7.49984 7.67549 6.73859 7.67549C5.97734 7.67549 5.35962 7.05777 5.35962 6.29652C5.35962 5.53527 5.97734 4.9231 6.73859 4.9231C7.49984 4.9231 8.11756 5.53538 8.11756 6.29652Z" fill="#D7E9FF" />
    <path d="M13.9483 6.29652C13.9483 7.05765 13.3305 7.67549 12.5693 7.67549C11.808 7.67549 11.1903 7.05777 11.1903 6.29652C11.1903 5.53527 11.808 4.9231 12.5693 4.9231C13.3305 4.9231 13.9483 5.53538 13.9483 6.29652Z" fill="#D7E9FF" />
    <path d="M19.7791 6.29652C19.7791 7.05765 19.1613 7.67549 18.4001 7.67549C17.6388 7.67549 17.0211 7.05777 17.0211 6.29652C17.0211 5.53527 17.6388 4.9231 18.4001 4.9231C19.1613 4.9231 19.7791 5.53538 19.7791 6.29652Z" fill="#D7E9FF" />
    <path d="M52.6404 6.29561C52.6404 7.0572 52.0179 7.67232 51.2563 7.67232H36.6619C35.9003 7.67232 35.2852 7.0572 35.2852 6.29561C35.2852 5.53402 35.9003 4.92627 36.6619 4.92627H51.2565C52.0179 4.92627 52.6404 5.53402 52.6404 6.29561Z" fill="#D7E9FF" />
    <path d="M54.4661 0.29895H3.53392C1.75008 0.29895 0.29895 1.74997 0.29895 3.53392V54.4722C0.29895 56.2525 1.74997 57.7011 3.53392 57.7011H54.4661C56.2499 57.7011 57.7011 56.2526 57.7011 54.4722C57.7011 48.0722 57.7011 11.1231 57.7011 3.53392C57.7011 1.74997 56.25 0.29895 54.4661 0.29895ZM1.49486 3.53392C1.49486 2.40961 2.40983 1.49486 3.53392 1.49486H54.4661C55.5902 1.49486 56.5051 2.40961 56.5051 3.53392V11.1036H1.49486V3.53392ZM56.5051 54.4722C56.5051 55.593 55.5902 56.5051 54.4661 56.5051H3.53392C2.40983 56.5051 1.49486 55.593 1.49486 54.4722V12.2995H56.5051V54.4722Z" fill="#1A2E35" />
    <path d="M8.09548 35.0121C9.25571 35.0121 10.1993 35.9455 10.1993 37.0926V42.3091C10.1993 44.1283 11.6691 45.6085 13.4752 45.6085C13.8058 45.6085 14.0731 45.3409 14.0731 45.0106C14.0731 44.6804 13.8056 44.4127 13.4752 44.4127C12.3283 44.4127 11.3953 43.4691 11.3953 42.3091V37.0926C11.3953 35.9776 10.8312 34.9908 9.97164 34.3987C10.8177 33.7978 11.3719 32.8139 11.3719 31.7127V26.4958C11.3719 25.3358 12.305 24.3922 13.4524 24.3922C13.783 24.3922 14.0503 24.1245 14.0503 23.7943C14.0503 23.4641 13.7829 23.1964 13.4524 23.1964C11.6458 23.1964 10.176 24.6767 10.176 26.4958V31.7127C10.176 32.8542 9.23826 33.7978 8.08619 33.8163C7.30047 33.8288 7.31123 35.0121 8.09548 35.0121Z" fill="#1A2E35" />
    <path d="M46.6047 37.0926V42.3091C46.6047 43.4691 45.6716 44.4127 44.5248 44.4127C44.1942 44.4127 43.9269 44.6804 43.9269 45.0106C43.9269 45.3408 44.1943 45.6085 44.5248 45.6085C46.3308 45.6085 47.8006 44.1283 47.8006 42.3091V37.0926C47.8006 35.9455 48.7443 35.0121 49.9045 35.0121C50.6896 35.0121 50.6985 33.8288 49.9138 33.8162C48.7617 33.7978 47.824 32.8542 47.824 31.7125V26.4957C47.824 24.6765 46.3543 23.1963 44.5475 23.1963C44.217 23.1963 43.9496 23.464 43.9496 23.7942C43.9496 24.1244 44.2171 24.3921 44.5475 24.3921C45.695 24.3921 46.6281 25.3357 46.6281 26.4957V31.7125C46.6281 32.8139 47.1822 33.7977 48.0283 34.3986C47.1689 34.9908 46.6047 35.9776 46.6047 37.0926Z" fill="#1A2E35" />
    <path d="M24.9856 44.7976C25.2936 44.9172 25.6396 44.7634 25.7587 44.4554L33.3567 24.7807C33.4759 24.4727 33.3223 24.1264 33.0145 24.0075C32.708 23.8887 32.3605 24.042 32.2414 24.3498L24.6434 44.0244C24.5243 44.3325 24.6778 44.6788 24.9856 44.7976Z" fill="#1A2E35" />
    <path d="M40.9985 34.4116L34.1054 39.0701C33.8315 39.2552 33.7596 39.6269 33.9447 39.9005C34.1302 40.1759 34.5034 40.2446 34.7745 40.0611L42.3994 34.908C42.752 34.6697 42.7481 34.1538 42.4005 33.9177L34.7757 28.7447C34.5036 28.5596 34.131 28.6305 33.9453 28.9038C33.7596 29.1771 33.8309 29.5491 34.1041 29.7344L40.9985 34.4116Z" fill="#1A2E35" />
    <path d="M15.5984 34.9064L23.1514 40.0595C23.4231 40.2455 23.7963 40.1753 23.9823 39.9024C24.1686 39.6297 24.098 39.2577 23.8252 39.0715L16.995 34.4114L23.8264 29.7327C24.0985 29.5461 24.1679 29.1739 23.9817 28.9014C23.7949 28.629 23.424 28.5596 23.1502 28.7458L15.5971 33.9188C15.4342 34.0304 15.3373 34.2155 15.3373 34.4128C15.3373 34.6101 15.4355 34.7951 15.5984 34.9064Z" fill="#1A2E35" />
    <path d="M6.73849 4.32507C5.64884 4.32507 4.76196 5.20946 4.76196 6.29639C4.76196 7.38661 5.64896 8.27326 6.73849 8.27326C7.82871 8.27326 8.71571 7.38661 8.71571 6.29639C8.71559 5.20946 7.8286 4.32507 6.73849 4.32507ZM6.73849 7.07747C6.30814 7.07747 5.95776 6.72709 5.95776 6.29651C5.95776 5.86876 6.30814 5.5211 6.73849 5.5211C7.16942 5.5211 7.5198 5.86887 7.5198 6.29651C7.51968 6.72709 7.16942 7.07747 6.73849 7.07747Z" fill="#1A2E35" />
    <path d="M12.5696 4.32507C11.4794 4.32507 10.5924 5.20946 10.5924 6.29639C10.5924 7.38661 11.4794 8.27326 12.5696 8.27326C13.6593 8.27326 14.5462 7.38661 14.5462 6.29639C14.5462 5.20946 13.6592 4.32507 12.5696 4.32507ZM12.5696 7.07747C12.1387 7.07747 11.7883 6.72709 11.7883 6.29651C11.7883 5.86876 12.1387 5.5211 12.5696 5.5211C13 5.5211 13.3504 5.86887 13.3504 6.29651C13.3504 6.72709 13 7.07747 12.5696 7.07747Z" fill="#1A2E35" />
    <path d="M18.4001 4.32507C17.3098 4.32507 16.4229 5.20946 16.4229 6.29639C16.4229 7.38661 17.3098 8.27326 18.4001 8.27326C19.4897 8.27326 20.3766 7.38661 20.3766 6.29639C20.3766 5.20946 19.4896 4.32507 18.4001 4.32507ZM18.4001 7.07747C17.9691 7.07747 17.6188 6.72709 17.6188 6.29651C17.6188 5.86876 17.9691 5.5211 18.4001 5.5211C18.8304 5.5211 19.1808 5.86887 19.1808 6.29651C19.1808 6.72709 18.8304 7.07747 18.4001 7.07747Z" fill="#1A2E35" />
    <path d="M51.2562 4.32837H36.6616C35.5726 4.32837 34.6868 5.21094 34.6868 6.29561C34.6868 7.38458 35.5726 8.27044 36.6616 8.27044H51.2562C52.3487 8.27044 53.238 7.38458 53.238 6.29561C53.238 5.21094 52.3487 4.32837 51.2562 4.32837ZM51.2562 7.07453H36.6616C36.2318 7.07453 35.8827 6.72506 35.8827 6.29561C35.8827 5.86322 36.2249 5.52428 36.6616 5.52428H51.2562C51.6895 5.52428 52.0421 5.87024 52.0421 6.29561C52.0421 6.72506 51.6895 7.07453 51.2562 7.07453Z" fill="#1A2E35" />
  </g>
  <defs>
    <clipPath id="clip0_1_811">
      <rect width="58" height="58" fill="white" />
    </clipPath>
  </defs>
</svg>