<svg width="91" height="91" viewBox="0 0 91 91" fill="none" xmlns="http://www.w3.org/2000/svg">
<path d="M89.5926 44.7761C89.5926 51.7489 83.9496 57.392 76.9767 57.392V32.1244C83.9497 32.1242 89.5926 37.7852 89.5926 44.7761Z" fill="white"/>
<path d="M73.7902 6.16943C72.0303 6.16943 70.6036 7.59611 70.6036 9.35603V80.1601C70.6036 81.92 72.0303 83.3467 73.7902 83.3467C75.5502 83.3467 76.9769 81.92 76.9769 80.1601V9.35603C76.9769 7.59611 75.5502 6.16943 73.7902 6.16943Z" fill="white"/>
<path d="M70.6068 11.6538V77.8622C63.5174 65.0063 46.3299 57.4759 32.3931 56.7843V32.732C46.3299 32.0403 63.5174 24.51 70.6068 11.6538Z" fill="#38BFF2"/>
<path d="M32.3888 32.7287V56.7907C32.3888 58.2167 31.2328 59.3727 29.8069 59.3727H9.7963C8.37034 59.3727 7.21436 58.2167 7.21436 56.7907V32.7287C7.21436 31.3027 8.37034 30.1467 9.7963 30.1467H29.8069C31.2328 30.1466 32.3888 31.3027 32.3888 32.7287Z" fill="white"/>
<path d="M3.78057 35.8463H7.21457V53.6725H3.78057C2.46765 53.6725 1.4071 52.6122 1.4071 51.2991V38.2198C1.40728 36.9069 2.46765 35.8463 3.78057 35.8463Z" fill="#38BFF2"/>
<path d="M25.508 27.6444V30.1426H14.1003V27.6444C14.1003 26.2757 15.2099 25.1663 16.5785 25.1663H23.0301C24.3986 25.1663 25.508 26.2757 25.508 27.6444Z" fill="white"/>
<path d="M18.3905 83.6094L25.8401 59.3727H13.7632V83.1015C13.7632 84.0564 14.5374 84.8306 15.4924 84.8306H16.7377C17.4968 84.8305 18.1673 84.3353 18.3905 83.6094Z" fill="#38BFF2"/>
<path d="M90.5309 44.7762C90.5309 37.6004 84.9508 31.7204 77.9155 31.2336V9.3557C77.9155 7.08177 76.0649 5.2312 73.7901 5.2312C71.5162 5.2312 69.6656 7.08177 69.6656 9.3557V11.4053C62.7629 23.6685 46.2953 30.8351 33.1687 31.7421C32.7388 30.2836 31.4028 29.2088 29.8071 29.2088H26.4467V27.644C26.4467 25.7604 24.9139 24.2276 23.0302 24.2276H16.5787C14.695 24.2276 13.1623 25.7604 13.1623 27.644V29.2088H9.79649C7.85599 29.2088 6.27664 30.7883 6.27664 32.7287V34.9082H3.7809C1.95503 34.9082 0.468994 36.3943 0.468994 38.2201V51.2992C0.468994 53.1251 1.95503 54.6103 3.7809 54.6103H6.27647V56.7907C6.27647 58.7312 7.85599 60.3105 9.79632 60.3105H12.8253V83.1018C12.8253 84.5722 14.0218 85.7687 15.4922 85.7687H16.7372C17.9163 85.7687 18.9406 85.0119 19.2868 83.8851L26.5334 60.3105H29.8071C31.4037 60.3105 32.7406 59.2345 33.1695 57.7746C46.2958 58.6818 62.7638 65.8486 69.6653 78.1103V80.1599C69.6653 82.4339 71.5158 84.2844 73.7898 84.2844C76.0646 84.2844 77.9152 82.4339 77.9152 80.1599V58.2822C84.9508 57.7969 90.5309 51.9327 90.5309 44.7762ZM15.0386 27.644C15.0386 26.7948 15.7294 26.104 16.5787 26.104H23.0302C23.8795 26.104 24.5703 26.7948 24.5703 27.644V29.2042H15.0386V27.644ZM3.7809 52.7339C2.98927 52.7339 2.34534 52.0898 2.34534 51.2992V38.2201C2.34534 37.4285 2.98945 36.7846 3.7809 36.7846H6.27647V52.7339H3.7809ZM17.4931 83.3335V83.3344C17.3906 83.6679 17.0872 83.8923 16.7372 83.8923H15.4922C15.056 83.8923 14.7016 83.5378 14.7016 83.1018V60.3105H24.5705L17.4931 83.3335ZM31.4508 56.7907C31.4508 57.6968 30.7133 58.4342 29.8073 58.4342C22.7373 58.4342 16.8701 58.4342 9.79649 58.4342C8.8904 58.4342 8.15299 57.6968 8.15299 56.7907C8.15299 50.7381 8.15299 38.7812 8.15299 32.7288C8.15299 31.8228 8.8904 31.0853 9.79649 31.0853H29.8073C30.7133 31.0853 31.4508 31.8228 31.4508 32.7288V56.7907ZM33.3316 55.9011V33.6156C46.0184 32.7251 61.7257 26.1662 69.6654 14.9179V74.5977C61.7267 63.3505 46.0186 56.7905 33.3316 55.9011ZM76.0392 80.1599C76.0392 81.3994 75.0305 82.4081 73.7899 82.4081C72.5504 82.4081 71.5418 81.3994 71.5418 80.1599C71.5464 -6.9205 71.5418 15.7014 71.5418 9.3557C71.5418 8.11619 72.5504 7.10754 73.7899 7.10754C75.0303 7.10754 76.0392 8.11619 76.0392 9.3557V80.1599ZM77.9153 56.416V33.0998C83.9171 33.5798 88.6546 38.6334 88.6546 44.7762C88.6546 50.8997 83.9171 55.9369 77.9153 56.416Z" fill="#1A2E35"/>
<path d="M28.0326 33.8859H11.571C11.0524 33.8859 10.6329 34.3055 10.6329 34.8239C10.6329 35.3424 11.0526 35.762 11.571 35.762H28.0326C28.5512 35.762 28.9707 35.3424 28.9707 34.8239C28.9707 34.3055 28.5511 33.8859 28.0326 33.8859Z" fill="#1A2E35"/>
<path d="M28.0326 38.8541H11.571C11.0524 38.8541 10.6329 39.2738 10.6329 39.7922C10.6329 40.3107 11.0526 40.7303 11.571 40.7303H28.0326C28.5512 40.7303 28.9707 40.3107 28.9707 39.7922C28.9707 39.2738 28.5511 38.8541 28.0326 38.8541Z" fill="#1A2E35"/>
<path d="M28.0326 43.8217H11.571C11.0524 43.8217 10.6329 44.2413 10.6329 44.7597C10.6329 45.2782 11.0526 45.6978 11.571 45.6978H28.0326C28.5512 45.6978 28.9707 45.2782 28.9707 44.7597C28.9707 44.2413 28.5511 43.8217 28.0326 43.8217Z" fill="#1A2E35"/>
<path d="M28.0326 48.7889H11.571C11.0524 48.7889 10.6329 49.2086 10.6329 49.727C10.6329 50.2456 11.0526 50.6651 11.571 50.6651H28.0326C28.5512 50.6651 28.9707 50.2455 28.9707 49.727C28.9707 49.2086 28.5511 48.7889 28.0326 48.7889Z" fill="#1A2E35"/>
<path d="M28.0326 53.7563H11.571C11.0524 53.7563 10.6329 54.176 10.6329 54.6944C10.6329 55.2131 11.0526 55.6325 11.571 55.6325H28.0326C28.5512 55.6325 28.9707 55.2129 28.9707 54.6944C28.9707 54.1758 28.5511 53.7563 28.0326 53.7563Z" fill="#1A2E35"/>
</svg>
