<svg width="35" height="35" viewBox="0 0 35 35" fill="none" xmlns="http://www.w3.org/2000/svg">
<g clip-path="url(#clip0_1_1098)">
<path d="M34.8741 17.4371C34.8741 27.0673 27.0673 34.8741 17.4371 34.8741C7.80683 34.8741 0 27.0673 0 17.4371C0 7.80683 7.80683 0 17.4371 0C27.0673 0 34.8741 7.80683 34.8741 17.4371Z" fill="#22253B"/>
<path fill-rule="evenodd" clip-rule="evenodd" d="M16.8497 22.9577H17.965C17.965 22.9577 18.302 22.9209 18.474 22.7358C18.6323 22.566 18.6272 22.2472 18.6272 22.2472C18.6272 22.2472 18.6054 20.7547 19.3 20.5348C19.9847 20.3184 20.8641 21.9775 21.796 22.6153C22.5006 23.0981 23.0361 22.9923 23.0361 22.9923L25.5281 22.9577C25.5281 22.9577 26.8316 22.8776 26.2134 21.8554C26.1629 21.7717 25.8536 21.0992 24.3609 19.7173C22.7983 18.2709 23.0075 18.5049 24.8897 16.003C26.036 14.4793 26.4942 13.549 26.351 13.1506C26.2144 12.7712 25.3714 12.8715 25.3714 12.8715L22.5658 12.8889C22.5658 12.8889 22.3578 12.8606 22.2035 12.9526C22.0529 13.0428 21.9557 13.253 21.9557 13.253C21.9557 13.253 21.5118 14.432 20.9194 15.4348C19.6701 17.5506 19.1706 17.6623 18.9664 17.5309C18.4914 17.2247 18.61 16.3008 18.61 15.6445C18.61 13.594 18.9218 12.7391 18.0028 12.5178C17.6978 12.4443 17.4734 12.3958 16.6934 12.3879C15.6923 12.3776 14.845 12.3909 14.3652 12.6254C14.046 12.7813 13.7998 13.1287 13.9497 13.1486C14.1352 13.1734 14.5552 13.2615 14.7778 13.564C15.0654 13.954 15.0552 14.8302 15.0552 14.8302C15.0552 14.8302 15.2204 17.2439 14.6694 17.5438C14.2912 17.7495 13.7724 17.3296 12.6586 15.41C12.0879 14.4267 11.657 13.3399 11.657 13.3399C11.657 13.3399 11.5739 13.1367 11.4257 13.0281C11.2458 12.8965 10.9945 12.8545 10.9945 12.8545L8.32841 12.872C8.32841 12.872 7.92817 12.8831 7.78125 13.0567C7.65054 13.211 7.77087 13.5304 7.77087 13.5304C7.77087 13.5304 9.85818 18.4008 12.2216 20.8553C14.3887 23.1055 16.8497 22.9577 16.8497 22.9577Z" fill="white"/>
</g>
<defs>
<clipPath id="clip0_1_1098">
<rect width="35" height="35" fill="white"/>
</clipPath>
</defs>
</svg>
