<svg width="35" height="35" viewBox="0 0 35 35" fill="none" xmlns="http://www.w3.org/2000/svg">
<g clip-path="url(#clip0_1_1106)">
<path d="M34.9403 17.4632C34.9403 27.1078 27.1217 34.9262 17.4771 34.9262C7.83244 34.9262 0.013916 27.1078 0.013916 17.4632C0.013916 7.81852 7.83244 0 17.4771 0C27.1217 0 34.9403 7.81852 34.9403 17.4632Z" fill="#22253B"/>
<path d="M26.4733 11.6698C25.7638 10.8264 24.4539 10.4824 21.9523 10.4824H12.8719C10.3131 10.4824 8.98107 10.8486 8.27429 11.7465C7.5852 12.6219 7.58521 13.9118 7.58521 15.697V19.0996C7.58521 22.5583 8.4028 24.3142 12.8719 24.3142H21.9523C24.1217 24.3142 25.3238 24.0107 26.1015 23.2664C26.899 22.5031 27.2393 21.2569 27.2393 19.0996V15.697C27.2393 13.8144 27.1859 12.5169 26.4733 11.6698ZM20.2031 17.8681L16.0797 20.0231C15.9876 20.0713 15.8867 20.0952 15.7861 20.0952C15.6721 20.0952 15.5583 20.0646 15.4576 20.0035C15.2679 19.8886 15.1521 19.683 15.1521 19.4612V15.165C15.1521 14.9436 15.2676 14.7382 15.4569 14.6232C15.6463 14.5081 15.8818 14.5003 16.0783 14.6024L20.2017 16.7435C20.4115 16.8524 20.5432 17.069 20.5436 17.3053C20.5438 17.5418 20.4127 17.7587 20.2031 17.8681Z" fill="white"/>
</g>
<defs>
<clipPath id="clip0_1_1106">
<rect width="35" height="35" fill="white"/>
</clipPath>
</defs>
</svg>
